HIERARCHY
ROOT hip
{
  OFFSET 1.00442 88.4947 -14.9798
  CHANNELS 6 Xposition Yposition Zposition Zrotation Xrotation Yrotation
  JOINT abdomen
  {
    OFFSET 0 6.09653 0.699602
    CHANNELS 3 Zrotation Xrotation Yrotation
    JOINT chest
    {
      OFFSET 0 2.49857 -0.699602
      CHANNELS 3 Zrotation Xrotation Yrotation
      JOINT lCollar
      {
        OFFSET 1.49915 11.2936 -1.69903
        CHANNELS 3 Zrotation Xrotation Yrotation
        JOINT lShldr
        {
          OFFSET 4.89721 -0.299833 0.799545
          CHANNELS 3 Zrotation Xrotation Yrotation
          JOINT lForeArm
          {
            OFFSET 12.4216 -1.19922 0.931564
            CHANNELS 3 Zrotation Xrotation Yrotation
            JOINT lHand
            {
              OFFSET 9.86568 0.0998482 3.66582
              CHANNELS 3 Zrotation Xrotation Yrotation
              JOINT lThumb1
              {
                OFFSET 0.399772 -0.399773 1.19932
                CHANNELS 3 Zrotation Xrotation Yrotation
                JOINT lThumb2
                {
                  OFFSET 0.99813 0 1.47145
                  CHANNELS 3 Zrotation Xrotation Yrotation
                  End Site
                  {
                    OFFSET 0.97784 -0.27884 0.829828
                  }
                }
              }
              JOINT lIndex1
              {
                OFFSET 2.69846 0.399775 2.09881
                CHANNELS 3 Zrotation Xrotation Yrotation
                JOINT lIndex2
                {
                  OFFSET 1.33823 -0.200884 0.6843
                  CHANNELS 3 Zrotation Xrotation Yrotation
                  End Site
                  {
                    OFFSET 0.760567 0.00099574 0.415074
                  }
                }
              }
              JOINT lMid1
              {
                OFFSET 2.99829 0.499714 1.09937
                CHANNELS 3 Zrotation Xrotation Yrotation
                JOINT lMid2
                {
                  OFFSET 1.45827 -0.0999388 0.600149
                  CHANNELS 3 Zrotation Xrotation Yrotation
                  End Site
                  {
                    OFFSET 1.04031 -0.0999473 0.399282
                  }
                }
              }
              JOINT lRing1
              {
                OFFSET 3.39806 0.399773 0.299829
                CHANNELS 3 Zrotation Xrotation Yrotation
                JOINT lRing2
                {
                  OFFSET 1.29926 -0.199886 0.399772
                  CHANNELS 3 Zrotation Xrotation Yrotation
                  End Site
                  {
                    OFFSET 0.899489 -0.0999425 0.199886
                  }
                }
              }
              JOINT lPinky1
              {
                OFFSET 3.29812 0.0999421 -0.399772
                CHANNELS 3 Zrotation Xrotation Yrotation
                JOINT lPinky2
                {
                  OFFSET 0.899488 -0.0999427 0
                  CHANNELS 3 Zrotation Xrotation Yrotation
                  End Site
                  {
                    OFFSET 0.999427 -0.0999418 0
                  }
                }
              }
            }
          }
        }
      }
      JOINT rCollar
      {
        OFFSET -1.49915 11.2936 -1.69903
        CHANNELS 3 Zrotation Xrotation Yrotation
        JOINT rShldr
        {
          OFFSET -4.89721 -0.299829 0.799545
          CHANNELS 3 Zrotation Xrotation Yrotation
          JOINT rForeArm
          {
            OFFSET -12.4216 -1.19922 0.931564
            CHANNELS 3 Zrotation Xrotation Yrotation
            JOINT rHand
            {
              OFFSET -9.86568 0.0998477 3.66582
              CHANNELS 3 Zrotation Xrotation Yrotation
              JOINT rThumb1
              {
                OFFSET -0.399773 -0.39977 1.19932
                CHANNELS 3 Zrotation Xrotation Yrotation
                JOINT rThumb2
                {
                  OFFSET -0.998132 0 1.47145
                  CHANNELS 3 Zrotation Xrotation Yrotation
                  End Site
                  {
                    OFFSET -0.977841 -0.278837 0.829828
                  }
                }
              }
              JOINT rPinky1
              {
                OFFSET -3.29812 0.0999423 -0.399772
                CHANNELS 3 Zrotation Xrotation Yrotation
                JOINT rPinky2
                {
                  OFFSET -0.899492 -0.0999405 0
                  CHANNELS 3 Zrotation Xrotation Yrotation
                  End Site
                  {
                    OFFSET -0.999429 -0.0999421 0
                  }
                }
              }
              JOINT rMid1
              {
                OFFSET -2.99829 0.499717 1.09937
                CHANNELS 3 Zrotation Xrotation Yrotation
                JOINT rMid2
                {
                  OFFSET -1.45827 -0.0999391 0.600149
                  CHANNELS 3 Zrotation Xrotation Yrotation
                  End Site
                  {
                    OFFSET -1.0403 -0.0999474 0.399282
                  }
                }
              }
              JOINT rIndex1
              {
                OFFSET -2.69847 0.399775 2.09881
                CHANNELS 3 Zrotation Xrotation Yrotation
                JOINT rIndex2
                {
                  OFFSET -1.33823 -0.200883 0.6843
                  CHANNELS 3 Zrotation Xrotation Yrotation
                  End Site
                  {
                    OFFSET -0.760569 0.00099747 0.415074
                  }
                }
              }
              JOINT rRing1
              {
                OFFSET -3.39807 0.399775 0.299829
                CHANNELS 3 Zrotation Xrotation Yrotation
                JOINT rRing2
                {
                  OFFSET -1.29926 -0.199888 0.399772
                  CHANNELS 3 Zrotation Xrotation Yrotation
                  End Site
                  {
                    OFFSET -0.899487 -0.0999402 0.199886
                  }
                }
              }
            }
          }
        }
      }
      JOINT neck
      {
        OFFSET 0 12.4929 -0.499715
        CHANNELS 3 Zrotation Xrotation Yrotation
        JOINT head
        {
          OFFSET 0 3.59795 0.299829
          CHANNELS 3 Zrotation Xrotation Yrotation
          JOINT leftEye
          {
            OFFSET 1.19932 3.69789 3.19818
            CHANNELS 3 Zrotation Xrotation Yrotation
            End Site
            {
              OFFSET 0 0 0
            }
          }
          JOINT rightEye
          {
            OFFSET -1.19932 3.69789 3.19818
            CHANNELS 3 Zrotation Xrotation Yrotation
            End Site
            {
              OFFSET 0 0 0
            }
          }
        }
      }
    }
  }
  JOINT rButtock
  {
    OFFSET -4.19761 -0.599656 -0.299829
    CHANNELS 3 Zrotation Xrotation Yrotation
    JOINT rThigh
    {
      OFFSET 0 -1.49915 0
      CHANNELS 3 Zrotation Xrotation Yrotation
      JOINT rShin
      {
        OFFSET 0.699602 -17.6899 -1.09938
        CHANNELS 3 Zrotation Xrotation Yrotation
        JOINT rFoot
        {
          OFFSET -0.699602 -18.0897 -0.699602
          CHANNELS 3 Zrotation Xrotation Yrotation
          End Site
          {
            OFFSET 0 -2.09881 5.59681
          }
        }
      }
    }
  }
  JOINT lButtock
  {
    OFFSET 4.19761 -0.599656 -0.299829
    CHANNELS 3 Zrotation Xrotation Yrotation
    JOINT lThigh
    {
      OFFSET 0 -1.49914 0
      CHANNELS 3 Zrotation Xrotation Yrotation
      JOINT lShin
      {
        OFFSET -0.699602 -17.6899 -1.09937
        CHANNELS 3 Zrotation Xrotation Yrotation
        JOINT lFoot
        {
          OFFSET 0.699602 -18.0897 -0.699602
          CHANNELS 3 Zrotation Xrotation Yrotation
          End Site
          {
            OFFSET 0 -2.0988 5.59681
          }
        }
      }
    }
  }
}
MOTION
Frames:	6
Frame Time:	0.0333333
1.00442 88.4947 -14.9798 2.23595 -11.4547 -1.14447 -0.00975517 -0.00975351 -0.00975351 -0.648219 9.23819 -0.357745 -3.4634 1.28039 -19.62 -69.5039 13.4342 8.98966 43.0541 7.49096 -63.9402 5.20954 -1.59526 8.74914 -1.87818 1.06148 -28.0917 9.40787 -7.94586 0.599069 -1.90214 1.09713 -28.0878 -8.62278 -0.0233157 1.79819 -1.91292 1.08254 -28.0857 0.181555 0.424301 -1.45108 -1.90892 1.07501 -28.0899 -2.42835 -0.502432 -4.4324 -1.89063 1.08193 -28.0686 -0.629806 -0.00995832 0.0010087 7.38052 0.930641 8.57067 65.4053 14.7412 -8.09316 -19.769 4.06368 62.8716 5.72001 2.27171 2.22298 1.8765 1.0053 28.0257 -9.40282 -7.91099 -0.69994 1.83969 1.02683 28.0275 0.629434 -0.00953168 -0.000952476 1.84571 1.02832 28.013 -0.243675 0.394432 1.44876 1.84104 1.04198 28.023 8.61171 -0.00190224 -1.79828 1.84463 1.02332 28.0095 2.42704 -0.497593 4.4329 0.702552 -9.2476 0.448566 -0.52453 -6.77491 -1.18341 0 0 0 0 0 0 -0.00975517 -0.00969887 -0.00983547 -6.51119 -69.9495 -0.0366982 13.8702 77.3125 -7.0728 8.4802 2.84301 -0.650592 -0.00975517 -0.00983547 -0.00969887 -0.20197 -68.1441 1.84527 -12.4651 75.038 4.61528 -2.04899 4.3798 0.326821 
1.00356 88.4937 -15.0337 2.26525 -11.5621 -1.08588 -0.00975517 -0.00975351 -0.00975351 -0.628664 9.21865 -0.328462 -3.48764 1.28269 -19.536 -69.5023 13.476 8.7718 43.1 7.6861 -63.7806 5.0049 -1.54127 8.62288 -1.87818 1.06148 -28.0917 9.40787 -7.94586 0.599069 -1.90214 1.09713 -28.0878 -8.62278 -0.0233157 1.79819 -1.91292 1.08254 -28.0857 0.181555 0.424301 -1.45108 -1.90892 1.07501 -28.0899 -2.42835 -0.502432 -4.4324 -1.89063 1.08193 -28.0686 -0.629806 -0.00995832 0.0010087 7.41795 0.914541 8.2956 65.3541 15.0028 -7.87584 -20.0845 4.1576 62.7746 5.67145 2.24648 2.1333 1.8765 1.0053 28.0257 -9.40282 -7.91099 -0.69994 1.83969 1.02683 28.0275 0.629434 -0.00953168 -0.000952476 1.84571 1.02832 28.013 -0.243675 0.394432 1.44876 1.84104 1.04198 28.023 8.61171 -0.00190224 -1.79828 1.84463 1.02332 28.0095 2.42704 -0.497593 4.4329 0.668266 -9.22812 0.407598 -0.227295 -6.37652 0.804497 0 0 0 0 0 0 -0.00975517 -0.00969887 -0.00983547 -6.27021 -69.8426 0.337602 13.7586 77.2187 -7.12161 8.60918 2.92129 -0.667796 -0.00975517 -0.00983547 -0.00969887 -0.577024 -68.0374 1.40535 -12.3687 74.9131 4.60673 -2.13839 4.49736 0.340436 
1.00233 88.4918 -15.1012 2.29456 -11.6891 -0.99799 -0.00975517 -0.00975351 -0.00975351 -0.599364 9.2382 -0.30893 -3.57263 1.30026 -19.4463 -69.4674 13.5331 8.56672 42.9804 7.80288 -63.6536 4.82992 -1.49397 8.53571 -1.87818 1.06148 -28.0917 9.40787 -7.94586 0.599069 -1.90214 1.09713 -28.0878 -8.62278 -0.0233157 1.79819 -1.91292 1.08254 -28.0857 0.181555 0.424301 -1.45108 -1.90892 1.07501 -28.0899 -2.42835 -0.502432 -4.4324 -1.89063 1.08193 -28.0686 -0.629806 -0.00995832 0.0010087 7.46507 0.904513 8.07965 65.278 15.1912 -7.67558 -20.4672 4.26874 62.667 5.57165 2.2082 2.14921 1.8765 1.0053 28.0257 -9.40282 -7.91099 -0.69994 1.83969 1.02683 28.0275 0.629434 -0.00953168 -0.000952476 1.84571 1.02832 28.013 -0.243675 0.394432 1.44876 1.84104 1.04198 28.023 8.61171 -0.00190224 -1.79828 1.84463 1.02332 28.0095 2.42704 -0.497593 4.4329 0.638844 -9.24767 0.406623 0.268315 -5.9007 3.53722 0 0 0 0 0 0 -0.00975517 -0.00969887 -0.00983547 -5.9281 -69.7164 0.872159 13.6234 77.1063 -7.19974 8.78796 3.01804 -0.690581 -0.00975517 -0.00983547 -0.00969887 -1.08286 -67.9117 0.802524 -12.2426 74.7498 4.61489 -2.25753 4.63504 0.35776 
0.999555 88.4905 -15.1842 2.32386 -11.7965 -0.949162 -0.00975517 -0.00975351 -0.00975351 -0.599349 9.27723 -0.250325 -3.56 1.29702 -19.4463 -69.4938 13.4905 8.36627 42.9996 7.9869 -63.498 4.62337 -1.44189 8.31182 -1.87818 1.06148 -28.0917 9.40787 -7.94586 0.599069 -1.90214 1.09713 -28.0878 -8.62278 -0.0233157 1.79819 -1.91292 1.08254 -28.0857 0.181555 0.424301 -1.45108 -1.90892 1.07501 -28.0899 -2.42835 -0.502432 -4.4324 -1.89063 1.08193 -28.0686 -0.629806 -0.00995832 0.0010087 7.53352 0.906201 7.97038 65.2085 15.2794 -7.49109 -20.9167 4.38247 62.5793 5.49447 2.18398 2.24404 1.8765 1.0053 28.0257 -9.40282 -7.91099 -0.69994 1.83969 1.02683 28.0275 0.629434 -0.00953168 -0.000952476 1.84571 1.02832 28.013 -0.243675 0.394432 1.44876 1.84104 1.04198 28.023 8.61171 -0.00190224 -1.79828 1.84463 1.02332 28.0095 2.42704 -0.497593 4.4329 0.631758 -9.28676 0.347729 1.00617 -5.44768 6.93687 0 0 0 0 0 0 -0.00975517 -0.00969887 -0.00983547 -5.33582 -69.6107 1.73926 13.4251 76.9368 -7.31461 9.02657 3.15631 -0.722549 -0.00975517 -0.00983547 -0.00969887 -1.55186 -67.7956 0.233541 -12.0927 74.5483 4.61573 -2.40638 4.80129 0.379463 
0.999396 88.4921 -15.2866 2.36292 -11.943 -0.890964 -0.00975517 -0.00975351 -0.00975351 -0.560286 9.3163 -0.221023 -3.58494 1.30599 -19.5 -69.5293 13.3885 8.16672 43.0868 8.1973 -63.3354 4.39938 -1.38165 8.15637 -1.87818 1.06148 -28.0917 9.40787 -7.94586 0.599069 -1.90214 1.09713 -28.0878 -8.62278 -0.0233157 1.79819 -1.91292 1.08254 -28.0857 0.181555 0.424301 -1.45108 -1.90892 1.07501 -28.0899 -2.42835 -0.502432 -4.4324 -1.89063 1.08193 -28.0686 -0.629806 -0.00995832 0.0010087 7.53048 0.914294 8.07603 65.2067 15.1816 -7.41694 -20.847 4.4657 62.3929 5.40506 2.14787 2.23204 1.8765 1.0053 28.0257 -9.40282 -7.91099 -0.69994 1.83969 1.02683 28.0275 0.629434 -0.00953168 -0.000952476 1.84571 1.02832 28.013 -0.243675 0.394432 1.44876 1.84104 1.04198 28.023 8.61171 -0.00190224 -1.79828 1.84463 1.02332 28.0095 2.42704 -0.497593 4.4329 0.596395 -9.32586 0.297473 1.84678 -4.84616 10.8374 0 0 0 0 0 0 -0.00975517 -0.00969887 -0.00983547 -4.64851 -69.4565 2.7114 13.1963 76.7293 -7.42234 9.30454 3.32277 -0.761178 -0.00975517 -0.00983547 -0.00969887 -2.0591 -67.6308 -0.394809 -11.9143 74.2983 4.6069 -2.55497 5.00719 0.403994 
0.998299 88.4943 -15.4245 2.3727 -12.0407 -0.803078 -0.00975517 -0.00975351 -0.00975351 -0.511476 9.41396 -0.181933 -3.5522 1.29832 -19.5155 -69.5721 13.2698 7.8439 43.1472 8.41837 -63.1585 4.23362 -1.33939 7.95131 -1.87818 1.06148 -28.0917 9.40787 -7.94586 0.599069 -1.90214 1.09713 -28.0878 -8.62278 -0.0233157 1.79819 -1.91292 1.08254 -28.0857 0.181555 0.424301 -1.45108 -1.90892 1.07501 -28.0899 -2.42835 -0.502432 -4.4324 -1.89063 1.08193 -28.0686 -0.629806 -0.00995832 0.0010087 7.51686 0.927343 8.26322 65.2 14.9818 -7.3186 -21.2064 4.59226 62.2594 5.2697 2.1058 2.41213 1.8765 1.0053 28.0257 -9.40282 -7.91099 -0.69994 1.83969 1.02683 28.0275 0.629434 -0.00953168 -0.000952476 1.84571 1.02832 28.013 -0.243675 0.394432 1.44876 1.84104 1.04198 28.023 8.61171 -0.00190224 -1.79828 1.84463 1.02332 28.0095 2.42704 -0.497593 4.4329 0.531655 -9.42357 0.24644 2.64013 -4.11528 15.0782 0 0 0 0 0 0 -0.00975517 -0.00969887 -0.00983547 -3.96214 -69.3315 3.72732 12.8957 76.4357 -7.52602 9.62229 3.56816 -0.813127 -0.00975517 -0.00983547 -0.00969887 -2.6492 -67.5059 -1.15086 -11.689 73.9618 4.56498 -2.73309 5.31083 0.437657 
